# xmcd
#
# Track frame offsets: 
#        150
#        19579
#        38750
#        53063
#        74855
#        93774
#        114429
#        131812
#        151362
#        169402
#        181997
#        200543
#        219565
#        236564
#        259798
#        277143
#        297337
#        318825
#        338521
#
# Disc length: 4745 seconds
#
# Revision: 0
# Processed by: cddbd v1.4PL0 Copyright (c) Steve Scherf et al.
# Submitted via: ExactAudioCopy v0.95a3
#
DISCID=1c128713
DTITLE=Robbie Williams - Best 2003
DYEAR=2003
DGENRE=Pop
TTITLE0=Saxed Up
TTITLE1=She`s The One
TTITLE2=How Peculiar
TTITLE3=Let Love Be Your Energy
TTITLE4=Freedom
TTITLE5=Kids
TTITLE6=Millenium
TTITLE7=Feel
TTITLE8=Supreme
TTITLE9=Somethin` Stupid
TTITLE10=Rock DJ
TTITLE11=Let Me Entertain You
TTITLE12=Old Before I Die
TTITLE13=No Regreats
TTITLE14=Lazy Days
TTITLE15=Strong
TTITLE16=Something Beautiful
TTITLE17=Angels
TTITLE18=We Are The Champions
EXTD=
EXTT0=
EXTT1=
EXTT2=
EXTT3=
EXTT4=
EXTT5=
EXTT6=
EXTT7=
EXTT8=
EXTT9=
EXTT10=
EXTT11=
EXTT12=
EXTT13=
EXTT14=
EXTT15=
EXTT16=
EXTT17=
EXTT18=
PLAYORDER=
